<svg id="visual" viewBox="0 0 1440 1024" width="1440" height="1024" xmlns="http://www.w3.org/2000/svg" xmlns:xlink="http://www.w3.org/1999/xlink" version="1.1"><rect x="0" y="0" width="1440" height="1024" fill="#ffffff"></rect><path d="M0 288L34.3 286.2C68.7 284.3 137.3 280.7 205.8 271.5C274.3 262.3 342.7 247.7 411.2 237.5C479.7 227.3 548.3 221.7 617 217.2C685.7 212.7 754.3 209.3 823 223.8C891.7 238.3 960.3 270.7 1028.8 278.3C1097.3 286 1165.7 269 1234.2 253.8C1302.7 238.7 1371.3 225.3 1405.7 218.7L1440 212L1440 0L1405.7 0C1371.3 0 1302.7 0 1234.2 0C1165.7 0 1097.3 0 1028.8 0C960.3 0 891.7 0 823 0C754.3 0 685.7 0 617 0C548.3 0 479.7 0 411.2 0C342.7 0 274.3 0 205.8 0C137.3 0 68.7 0 34.3 0L0 0Z" fill="#3b5683" stroke-linecap="round" stroke-linejoin="miter"></path></svg>