<svg id="visual" viewBox="0 0 1440 1024" width="1440" height="1024" xmlns="http://www.w3.org/2000/svg" xmlns:xlink="http://www.w3.org/1999/xlink" version="1.1"><rect x="0" y="0" width="1440" height="1024" fill="#ffffff"></rect><path d="M0 172L34.3 171C68.7 170 137.3 168 205.8 162.5C274.3 157 342.7 148 411.2 141.8C479.7 135.7 548.3 132.3 617 129.7C685.7 127 754.3 125 823 133.7C891.7 142.3 960.3 161.7 1028.8 166.3C1097.3 171 1165.7 161 1234.2 152C1302.7 143 1371.3 135 1405.7 131L1440 127L1440 0L1405.7 0C1371.3 0 1302.7 0 1234.2 0C1165.7 0 1097.3 0 1028.8 0C960.3 0 891.7 0 823 0C754.3 0 685.7 0 617 0C548.3 0 479.7 0 411.2 0C342.7 0 274.3 0 205.8 0C137.3 0 68.7 0 34.3 0L0 0Z" fill="#3b5683" stroke-linecap="round" stroke-linejoin="miter"></path></svg>